<?xml version="1.0" encoding="utf-8"?>
<!-- Generator: Adobe Illustrator 25.3.1, SVG Export Plug-In . SVG Version: 6.00 Build 0)  -->
<svg version="1.1" id="Layer_1" xmlns="http://www.w3.org/2000/svg" xmlns:xlink="http://www.w3.org/1999/xlink" x="0px" y="0px"
	 viewBox="0 0 500 453.3" style="enable-background:new 0 0 500 453.3;" xml:space="preserve">
<style type="text/css">
	.st0{fill:#F1D9C2;}
</style>
<g>
	<g id="Group_1" transform="translate(130.534 65)">
		<path id="Path_4" class="st0" d="M249-17.9c-26.3,0.3-52.4,2.5-78.4,6.7C-0.2,17.3,15.5,129.1,42.5,199.3c-38.4-0.1-88.2,0-88.2,0
			h-0.6c-9.9-10.8-18.8-22.6-26.6-35.2c-8.6-13.6-17.4-31.4-20.7-47.6c-16.5-82,36.6-162,118.7-178.5c3.5-0.7,7-1.3,10.5-1.8L38-64
			c1-0.1,2.2-0.1,3.2-0.3c4.5-0.4,9.2-0.7,13.9-0.7h1.5C135.1-65.3,217.8-24.4,249-17.9z"/>
		<path id="Path_5" class="st0" d="M249-17.9C54.8-6.5,25.6,100.7,106.3,199.5h93.6C131,78.5,119.4,24.5,249-17.9z"/>
		<path id="Path_6" class="st0" d="M282.2-19.2c-5.3-9.3-26.4-49-33.1,1.3c-103,43.9-80.1,107.3-56.8,128.3c2.3,2.2,5,3.9,7.7,5.4
			c13.3,6.9,27.1,12.8,41.3,17.7c0.1,0,0.1,0.1,0.3,0.1c39,13.3,73.3,14.6,87.7-4.5C364.5,88.1,287.4-10,282.2-19.2z M279,38.3
			c6.6,0,11.8,5.3,11.8,11.8S285.5,62,279,62c-6.6,0-11.8-5.3-11.8-11.8C267.1,43.6,272.4,38.3,279,38.3L279,38.3L279,38.3z"/>
	</g>
	<g id="Group_2" transform="translate(120.643 158.268)">
		<path id="Path_7" class="st0" d="M-110,150.7l-8.3-1.5v-7.4h58.1l1.5,18.7h-8.3l-3.6-10.7l-20.9-1v27.6l13-0.3l1.9-8.8h7.3V194
			h-7.3l-1.8-9.2l-13-0.3v28.9l23.2-1.5l6.4-13.7l9,2.6l-2.6,20h-62.8v-7l8.2-1V150.7z"/>
		<path id="Path_8" class="st0" d="M-22.4,182.6l-21.3-32l-7-1.5v-7.4h36.5v7.4l-8.3,1.6L-9.3,173l13.9-22.3l-8.9-1.5v-7.4h27.9v7.4
			l-8.6,1.5l-20.1,27.6l22.8,34.2l7,1.2v7h-36.5v-7l8.3-1.2l-14.3-24.2l-14,24.4l9.9,1v7h-29.3v-7l8.8-1L-22.4,182.6z"/>
		<path id="Path_9" class="st0" d="M36.4,150.7l-7.9-1.5v-7.4h17.4c1.2,0,3.4,0,6.6-0.1c4.1-0.3,7.9-0.4,11.1-0.4
			c6.1-0.3,12.3,0.7,18.1,2.8c3.9,1.5,7.3,4.2,9.3,7.9c5.1,11.5,2.9,25-5.5,34.2c-5.5,5-13.4,7.6-23.6,7.6c-2.5,0-5,0-7.3-0.3v19.3
			l14,1.2v7H28.2v-7l8.2-1V150.7z M61.5,186.3c9.2,0,13.9-7,13.9-21.2c0.4-4.5-0.9-9.2-3.5-12.8c-2.6-2.9-6.4-4.4-10.4-4.1
			c-1.6,0-3.1,0-4.7,0.3c-1.2,0.1-1.9,0.3-2.3,0.4v36.9C56.7,186.1,59.1,186.4,61.5,186.3L61.5,186.3z"/>
		<path id="Path_10" class="st0" d="M104.1,150.7l-8-1.5v-7.4h36.2v7.4l-10.1,1.5v61.7l20-1l6.9-21l9.9,1.3l-3.1,29H95.8v-7l8.2-1
			L104.1,150.7L104.1,150.7z"/>
		<path id="Path_11" class="st0" d="M170.9,210.9c-5.7-7.2-8.6-17.1-8.6-29.6c-0.1-7.4,1.3-14.7,4.5-21.5
			c2.8-5.8,7.2-10.8,12.7-14.2c5.8-3.4,12.4-5.1,19.1-5c12.1,0,21.2,3.4,26.9,10.1c5.8,6.7,8.6,16.3,8.6,28.9
			c0.1,7.6-1.5,15-4.5,21.9c-2.8,6-7.3,11.2-12.8,14.7c-5.8,3.6-12.6,5.4-19.4,5.3C185.5,221.7,176.6,218.1,170.9,210.9z
			 M186.4,156.1c-2.8,5.5-4.2,14-4.2,25.1c0,11.4,1.3,19.7,4.1,25.2c1.9,4.8,6.6,8.2,11.8,8.2c5,0,8.9-2.9,11.7-8.9
			c3.2-8.2,4.7-16.9,4.2-25.7c0-11.4-1.3-19.6-4.1-24.5c-2-4.7-6.7-7.6-11.8-7.6C193,147.9,188.3,151.1,186.4,156.1L186.4,156.1z"/>
		<path id="Path_12" class="st0" d="M236.6,213.6l8.2-1v-62l-7.7-1.5v-7.3h16.3c1.3,0,2.8,0,4.4-0.1c1.6,0,2.8-0.1,3.6-0.1
			c3.8-0.3,7.2-0.4,9.8-0.4c6.1-0.1,12.1,0.6,18.1,2.2c3.9,1,7.3,3.5,9.8,6.9c2.2,3.6,3.2,7.9,3.1,12.1c0,4.8-1.3,9.5-3.8,13.4
			c-2.5,4.2-6.6,7.3-11.2,8.6c3.4,1.3,6.3,3.6,8.2,6.7c2.6,4.1,5,8.2,7,12.6c1.5,2.9,2.5,5.3,3.4,6.6c0.6,1.2,1.5,2,2.6,2.5l3.1,1v7
			h-20.1c-1,0-2.2-1.2-3.4-3.4c-1.6-3.5-3.1-7-4.4-10.7c-2.2-5.8-4.1-10.4-5.7-13.6c-1-2.5-2.8-4.7-5.3-5.8H263v25.5l9.5,1v7h-35.8
			v-7.2H236.6z M279.7,175.8c2.3-3.9,3.4-8.5,3.1-13c0.3-3.9-0.7-7.9-3.1-11.2c-2.6-2.6-6.4-3.9-10.1-3.5c-2.2,0-4.5,0.1-6.7,0.6
			v31.2c1.5,0.3,3.1,0.4,4.5,0.3h3.6C274.4,180.3,277.8,178.7,279.7,175.8L279.7,175.8z"/>
		<path id="Path_13" class="st0" d="M322.4,150.7l-8.3-1.5v-7.4h58.1l1.3,18.8h-8.3l-3.6-10.7l-20.9-1v27.6l13-0.3l1.9-8.8h7.3v26.7
			h-7.3l-1.8-9.2l-13-0.3v28.9l23.2-1.5l6.4-13.7l9,2.6l-2.6,20h-62.6v-7l8.2-1L322.4,150.7z"/>
	</g>
	<g id="Group_3" transform="translate(119.959 193.538)">
		<path id="Path_14" class="st0" d="M-104.3,218.7h9.8l12.3,36.6l3.1,0.6v3.6h-17.4v-3.6l3.9-0.6l-1.9-6.6h-13l-1.9,6.6l4.2,0.4v3.6
			h-14.6v-3.6l3.2-0.6L-104.3,218.7z M-100.4,228.2l-0.9-3.8l-0.9,3.9l-4.4,16.3h10.9L-100.4,228.2z"/>
		<path id="Path_15" class="st0" d="M-52.2,255.8c-3.1-3.5-4.7-8.2-4.2-12.8v-19.6l-3.4-0.7v-3.8h17.7v3.8l-4.5,0.9v20.1
			c0,8.2,2.9,12.4,8.6,12.4c2.5,0.1,5-1,6.3-3.2c1.5-2.8,2.2-5.8,2-9v-20.4l-4.7-0.7v-3.8h14.2v3.8l-3.6,0.7v19.8
			c0.4,4.5-1.2,9-4.2,12.6c-3.1,2.8-7.2,4.2-11.4,4.1C-44.1,260.2-48.7,258.7-52.2,255.8z"/>
		<path id="Path_16" class="st0" d="M11.1,259.6c-1.8-0.3-3.5-0.7-5.4-1.3c-0.9-0.3-1.8-0.4-2.6-0.6l0.4-10.2h5.1l1.3,7
			c0.6,0.6,1.3,1,2.2,1.3c1.3,0.4,2.5,0.6,3.8,0.6c1.8,0.1,3.5-0.4,5-1.5c1.2-1,1.8-2.5,1.6-4.1c0-1.2-0.3-2.2-1-3.2
			c-0.9-1-1.9-1.8-2.9-2.5c-1.6-1-3.4-1.8-5.1-2.6c-2.8-1.2-5.3-2.9-7.3-5c-2-2.2-3.1-5.1-2.9-8c0-2,0.6-3.9,1.6-5.5
			c1.2-1.8,2.9-3.2,4.8-4.1c2.5-1.2,5.3-1.6,8-1.5c1.8,0,3.4,0.1,5.1,0.4c1.5,0.3,2.9,0.6,4.7,1c0.6,0.3,1.3,0.4,2,0.4l-0.3,9.8h-5
			l-1.3-6.7c-0.4-0.4-1-0.7-1.8-0.9c-1-0.3-1.9-0.4-2.9-0.4c-1.6-0.1-3.2,0.4-4.5,1.5c-1,0.9-1.6,2.3-1.5,3.6c0,1.3,0.4,2.5,1.3,3.5
			c0.9,1,1.9,1.9,3.1,2.5c1.2,0.7,3.1,1.6,5.4,2.8c1.8,0.9,3.5,1.8,5.1,2.9c1.5,1,2.8,2.3,3.6,3.8c1,1.6,1.6,3.5,1.5,5.4
			c0,2-0.4,3.9-1.5,5.8c-1.2,2-2.9,3.6-5,4.7c-2.9,1.3-6,2-9.2,1.9C14.9,260,13,259.9,11.1,259.6z"/>
		<path id="Path_17" class="st0" d="M68.9,222.8l-6.9,0.3l-2.3,12.1h-5.1l0.9-16.5h36l0.7,16.5h-4.8l-2.3-12.1l-6.6-0.3v32.4
			l7.6,0.6v3.6H62v-3.6l7-0.6L68.9,222.8z"/>
		<path id="Path_18" class="st0" d="M116.3,255.8l4.2-0.6v-32l-3.9-0.7v-3.6h8.5c0.7,0,1.5,0,2.3,0c0.9,0,1.5,0,1.9-0.1
			c1.9-0.1,3.6-0.1,5-0.1c3.1-0.1,6.3,0.3,9.3,1.2c2,0.6,3.8,1.8,5,3.5c1.2,1.9,1.6,4.1,1.6,6.3c0,2.5-0.7,4.8-1.9,7
			c-1.3,2.2-3.4,3.8-5.8,4.4c1.8,0.7,3.2,1.9,4.2,3.5c1.3,2,2.5,4.2,3.6,6.4c0.7,1.5,1.3,2.6,1.8,3.4c0.3,0.6,0.7,1,1.3,1.3l1.6,0.4
			v3.6h-10.4c-0.6,0-1.2-0.6-1.8-1.8c-0.9-1.8-1.6-3.6-2.2-5.4c-1.2-3.1-2-5.4-2.9-7c-0.4-1.3-1.5-2.3-2.8-3.1h-5v13.1l4.8,0.6v3.6
			h-18.4v-3.9L116.3,255.8L116.3,255.8z M138.5,236.4c1.2-2,1.8-4.4,1.6-6.7c0.1-2-0.4-4.1-1.6-5.8c-1.3-1.3-3.4-2-5.3-1.9
			c-1.2,0-2.3,0.1-3.5,0.3v16.1c0.7,0.1,1.6,0.1,2.3,0.1h1.9C135.9,238.7,137.5,237.8,138.5,236.4L138.5,236.4z"/>
		<path id="Path_19" class="st0" d="M192.5,218.7h9.8l12.3,36.6l3.1,0.6v3.6h-17.2v-3.6l3.9-0.6l-1.9-6.6h-13l-1.9,6.6l4.2,0.4v3.6
			h-14.6v-3.6l3.2-0.6L192.5,218.7z M196.6,228.2l-0.9-3.8l-0.9,3.9l-4.4,16.3h10.8L196.6,228.2z"/>
		<path id="Path_20" class="st0" d="M245.3,223.4l-4.1-0.7v-3.8h18.7v3.8l-5.3,0.7V255l10.2-0.6l3.5-10.8l5.1,0.6l-1.6,15H241v-3.6
			l4.2-0.6L245.3,223.4z"/>
		<path id="Path_21" class="st0" d="M302,223.4l-4.5-0.7v-3.8h18.4v3.8l-4.5,0.7v31.8l4.5,0.6v3.5h-18.4v-3.6l4.4-0.6v-31.7
			L302,223.4L302,223.4z"/>
		<path id="Path_22" class="st0" d="M354.8,218.7h9.8l12.3,36.6l3.1,0.6v3.6h-17.2v-3.6l3.9-0.6l-1.9-6.6h-13l-1.9,6.6l4.2,0.4v3.6
			h-14.6v-3.6l3.2-0.6L354.8,218.7z M358.9,228.2l-0.9-3.8l-0.9,3.9l-4.4,16.3h10.8L358.9,228.2z"/>
	</g>
</g>
</svg>
