<?xml version="1.0" encoding="utf-8"?>
<!-- Generator: Adobe Illustrator 25.3.1, SVG Export Plug-In . SVG Version: 6.00 Build 0)  -->
<svg version="1.1" id="Layer_1" xmlns="http://www.w3.org/2000/svg" xmlns:xlink="http://www.w3.org/1999/xlink" x="0px" y="0px"
	 viewBox="0 0 435.1 264.5" style="enable-background:new 0 0 435.1 264.5;" xml:space="preserve">
<style type="text/css">
	.st0{fill:#F1D9C2;}
</style>
<g id="Group_1" transform="translate(130.534 65)">
	<path id="Path_4" class="st0" d="M215.1-17.9c-26.3,0.3-52.4,2.5-78.4,6.7C-34.1,17.3-18.4,129.1,8.6,199.3
		c-38.4-0.1-88.2,0-88.2,0h-0.6c-9.9-10.8-18.8-22.6-26.6-35.2c-8.6-13.6-17.4-31.4-20.7-47.6C-144,34.5-90.9-45.5-8.8-62
		c3.5-0.7,7-1.3,10.5-1.8L4.1-64c1-0.1,2.2-0.1,3.2-0.3c4.5-0.4,9.2-0.7,13.9-0.7h1.5C101.2-65.3,183.9-24.4,215.1-17.9z"/>
	<path id="Path_5" class="st0" d="M215.1-17.9C20.9-6.5-8.3,100.7,72.4,199.5H166C97.1,78.5,85.5,24.5,215.1-17.9z"/>
	<path id="Path_6" class="st0" d="M248.3-19.2c-5.3-9.3-26.4-49-33.1,1.3c-103,43.9-80.1,107.3-56.8,128.3c2.3,2.2,5,3.9,7.7,5.4
		c13.3,6.9,27.1,12.8,41.3,17.7c0.1,0,0.1,0.1,0.3,0.1c39,13.3,73.3,14.6,87.7-4.5C330.6,88.1,253.5-10,248.3-19.2z M245.1,38.3
		c6.6,0,11.8,5.3,11.8,11.8S251.6,62,245.1,62c-6.6,0-11.8-5.3-11.8-11.8C233.2,43.6,238.5,38.3,245.1,38.3L245.1,38.3L245.1,38.3z"
		/>
</g>
</svg>
