<?xml version="1.0" encoding="utf-8"?>
<!-- Generator: Adobe Illustrator 25.3.1, SVG Export Plug-In . SVG Version: 6.00 Build 0)  -->
<svg version="1.1" id="Layer_1" xmlns="http://www.w3.org/2000/svg" xmlns:xlink="http://www.w3.org/1999/xlink" x="0px" y="0px"
	 viewBox="0 0 50 50" style="enable-background:new 0 0 50 50;" xml:space="preserve">
<style type="text/css">
	.st0{fill:#F1D9C2;}
</style>
<path id="logo-facebook" class="st0" d="M47.2,0H2.8C1.2,0,0,1.2,0,2.8c0,0,0,0,0,0v44.5C0,48.8,1.2,50,2.8,50c0,0,0,0,0,0H25V30.2
	h-6v-7.3h6v-5.4c-0.3-5.2,3.7-9.7,9-10c0.4,0,0.8,0,1.3,0c2.8,0,5.7,0.2,6.4,0.3v6.7h-4.6c-3.1,0-3.7,1.5-3.7,3.7v4.6h7.5l-1,7.3
	h-6.5V50h13.9c1.5,0,2.8-1.2,2.8-2.8c0,0,0,0,0,0V2.8C50,1.2,48.8,0,47.2,0C47.2,0,47.2,0,47.2,0z"/>
</svg>
