<?xml version="1.0" encoding="utf-8"?>
<!-- Generator: Adobe Illustrator 25.3.1, SVG Export Plug-In . SVG Version: 6.00 Build 0)  -->
<svg version="1.1" id="Layer_1" xmlns="http://www.w3.org/2000/svg" xmlns:xlink="http://www.w3.org/1999/xlink" x="0px" y="0px"
	 viewBox="0 0 50 50" style="enable-background:new 0 0 50 50;" xml:space="preserve">
<style type="text/css">
	.st0{fill:#F1D9C2;}
</style>
<path id="logo-linkedin" class="st0" d="M46,0H4.3C2-0.1,0.1,1.6,0,3.9c0,0,0,0,0,0v41.8c0.1,2.3,1.9,4.2,4.3,4.3H46
	c2.3-0.1,4.1-2,4-4.3V3.9C50,1.8,48.3,0,46.2,0C46.2,0,46.1,0,46,0z M15.5,41.7H8.3V19.4h7.2V41.7z M12.2,16L12.2,16
	c-2.2,0-3.9-1.8-3.9-3.9s1.8-3.9,3.9-3.9c2.1,0,3.9,1.8,3.9,3.9C16,14.3,14.3,16,12.2,16z M41.7,41.7h-7.2V29.5c0-2.9-1-4.9-3.6-4.9
	c-1.7,0-3.1,1.1-3.7,2.6C27,27.8,26.9,28.4,27,29v12.7h-7.2V19.4H27v3.1c1.3-2.3,3.8-3.7,6.5-3.6c4.7,0,8.3,3.1,8.3,9.8L41.7,41.7z"
	/>
</svg>
