<?xml version="1.0" encoding="utf-8"?>
<!-- Generator: Adobe Illustrator 25.3.1, SVG Export Plug-In . SVG Version: 6.00 Build 0)  -->
<svg version="1.1" id="Layer_1" xmlns="http://www.w3.org/2000/svg" xmlns:xlink="http://www.w3.org/1999/xlink" x="0px" y="0px"
	 viewBox="0 0 50 40.7" style="enable-background:new 0 0 50 40.7;" xml:space="preserve">
<style type="text/css">
	.st0{fill:#F1D9C2;}
</style>
<path id="logo-twitter" class="st0" d="M50,4.8c-1.9,0.8-3.9,1.4-5.9,1.6c2.1-1.3,3.7-3.3,4.5-5.7c-2,1.2-4.2,2-6.5,2.5
	c-3.9-4.1-10.4-4.4-14.5-0.5c-2.1,1.9-3.3,4.7-3.3,7.5c0,0.8,0.1,1.6,0.3,2.3C16.4,12.2,8.7,8.3,3.5,1.9C0.8,6.6,2.2,12.6,6.7,15.6
	c-1.6,0-3.2-0.5-4.7-1.3v0.1c0,4.9,3.4,9.1,8.2,10.1c-0.9,0.2-1.8,0.4-2.7,0.4c-0.6,0-1.3-0.1-1.9-0.2c1.3,4.2,5.2,7.1,9.6,7.1
	c-3.6,2.9-8.1,4.4-12.8,4.4c-0.8,0-1.7-0.1-2.5-0.2c4.7,3,10.1,4.7,15.7,4.7c16,0.1,29.1-12.8,29.2-28.8c0-0.1,0-0.3,0-0.4
	c0-0.4,0-0.9,0-1.3C46.9,8.7,48.6,6.9,50,4.8z"/>
</svg>
