<?xml version="1.0" encoding="utf-8"?>
<!-- Generator: Adobe Illustrator 25.3.1, SVG Export Plug-In . SVG Version: 6.00 Build 0)  -->
<svg version="1.1" id="Layer_1" xmlns="http://www.w3.org/2000/svg" xmlns:xlink="http://www.w3.org/1999/xlink" x="0px" y="0px"
	 viewBox="0 0 50 50" style="enable-background:new 0 0 50 50;" xml:space="preserve">
<style type="text/css">
	.st0{enable-background:new    ;}
	.st1{fill:#F8C591;}
</style>
<g class="st0">
	<path class="st1" d="M10.6,39c-1.3-1.1-2.3-2.6-3-4.4c-0.7-1.8-1.1-3.8-1.1-5.8c0-3.4,0.6-6.5,1.8-9.5c1.2-3,2.7-5.5,4.5-7.6
		c1.8-2.1,3.5-3.6,5.1-4.5H18l2.8,2.5v1.2c-1.2,1.1-2.3,2.7-3.3,4.8c-1,2.1-1.5,4.6-1.5,7.6c0,1.5,0.2,2.7,0.6,3.7s1.1,2,1.9,3
		c0.7,1,1.2,1.8,1.6,2.6c0.3,0.7,0.5,1.7,0.5,2.8c0,1.5-0.5,2.8-1.6,3.9c-1.1,1-2.4,1.5-4,1.5S11.8,40.2,10.6,39z M31.3,39
		c-1.3-1.1-2.3-2.6-3-4.4c-0.7-1.8-1.1-3.8-1.1-5.8c0-3.4,0.6-6.5,1.8-9.5c1.2-3,2.7-5.5,4.5-7.6c1.8-2.1,3.5-3.6,5.1-4.5h0.1
		l2.8,2.5v1.2c-1.2,1.1-2.3,2.7-3.4,4.8s-1.6,4.6-1.6,7.6c0,1.5,0.2,2.7,0.6,3.7c0.4,1,1.1,2,1.9,3c0.7,1,1.2,1.8,1.6,2.6
		c0.3,0.7,0.5,1.7,0.5,2.8c0,1.5-0.5,2.8-1.6,3.9c-1.1,1-2.4,1.5-4,1.5S32.6,40.2,31.3,39z"/>
</g>
</svg>
